<?xml version="1.0" encoding="utf-8"?>
<svg version="1.1" xmlns:xlink="http://www.w3.org/1999/xlink" width="480px" height="32px" xmlns="http://www.w3.org/2000/svg">
  <g transform="matrix(1 0 0 1 -1034 -1252 )">
    <path d="M 1035 1256  A 3 3 0 0 1 1038 1253 L 1510 1253  A 3 3 0 0 1 1513 1256 L 1513 1280  A 3 3 0 0 1 1510 1283 L 1038 1283  A 3 3 0 0 1 1035 1280 L 1035 1256  Z " fill-rule="nonzero" fill="#ffffff" stroke="none" />
    <path d="M 1034.5 1256  A 3.5 3.5 0 0 1 1038 1252.5 L 1510 1252.5  A 3.5 3.5 0 0 1 1513.5 1256 L 1513.5 1280  A 3.5 3.5 0 0 1 1510 1283.5 L 1038 1283.5  A 3.5 3.5 0 0 1 1034.5 1280 L 1034.5 1256  Z " stroke-width="1" stroke-dasharray="9,4" stroke="#e9e9e9" fill="none" stroke-dashoffset="0.5" />
  </g>
</svg>