<?xml version="1.0" encoding="utf-8"?>
<svg version="1.1" xmlns:xlink="http://www.w3.org/1999/xlink" width="12px" height="12px" viewBox="318 468.5  12 12" xmlns="http://www.w3.org/2000/svg">
  <path d="M 324 468.5  C 327.36 468.5  330 471.14  330 474.5  C 330 477.86  327.36 480.5  324 480.5  C 320.64 480.5  318 477.86  318 474.5  C 318 471.14  320.64 468.5  324 468.5  Z " fill-rule="nonzero" fill="#ffffff" stroke="none" />
  <path d="M 324 469  C 327.08 469  329.5 471.42  329.5 474.5  C 329.5 477.58  327.08 480  324 480  C 320.92 480  318.5 477.58  318.5 474.5  C 318.5 471.42  320.92 469  324 469  Z " stroke-width="1" stroke="#797979" fill="none" />
  <path d="M 324 477.5  C 322.32 477.5  321 476.18  321 474.5  C 321 472.82  322.32 471.5  324 471.5  C 325.68 471.5  327 472.82  327 474.5  C 327 476.18  325.68 477.5  324 477.5  " fill-rule="nonzero" fill="#797979" stroke="none" />
</svg>