<?xml version="1.0" encoding="utf-8"?>
<svg version="1.1" xmlns:xlink="http://www.w3.org/1999/xlink" width="12px" height="12px" viewBox="318 502.5  12 12" xmlns="http://www.w3.org/2000/svg">
  <path d="M 324 502.5  C 327.36 502.5  330 505.14  330 508.5  C 330 511.86  327.36 514.5  324 514.5  C 320.64 514.5  318 511.86  318 508.5  C 318 505.14  320.64 502.5  324 502.5  Z " fill-rule="nonzero" fill="#ffffff" stroke="none" />
  <path d="M 324 503  C 327.08 503  329.5 505.42  329.5 508.5  C 329.5 511.58  327.08 514  324 514  C 320.92 514  318.5 511.58  318.5 508.5  C 318.5 505.42  320.92 503  324 503  Z " stroke-width="1" stroke="#797979" fill="none" />
  <path d="M 324 511.5  C 322.32 511.5  321 510.18  321 508.5  C 321 506.82  322.32 505.5  324 505.5  C 325.68 505.5  327 506.82  327 508.5  C 327 510.18  325.68 511.5  324 511.5  " fill-rule="nonzero" fill="#797979" stroke="none" />
</svg>