<?xml version="1.0" encoding="utf-8"?>
<svg version="1.1" xmlns:xlink="http://www.w3.org/1999/xlink" width="12px" height="12px" viewBox="411 122.5  12 12" xmlns="http://www.w3.org/2000/svg">
  <path d="M 417 122.5  C 420.36 122.5  423 125.14  423 128.5  C 423 131.86  420.36 134.5  417 134.5  C 413.64 134.5  411 131.86  411 128.5  C 411 125.14  413.64 122.5  417 122.5  Z " fill-rule="nonzero" fill="#ffffff" stroke="none" />
  <path d="M 417 123  C 420.08 123  422.5 125.42  422.5 128.5  C 422.5 131.58  420.08 134  417 134  C 413.92 134  411.5 131.58  411.5 128.5  C 411.5 125.42  413.92 123  417 123  Z " stroke-width="1" stroke="#797979" fill="none" />
  <path d="M 417 131.5  C 415.32 131.5  414 130.18  414 128.5  C 414 126.82  415.32 125.5  417 125.5  C 418.68 125.5  420 126.82  420 128.5  C 420 130.18  418.68 131.5  417 131.5  " fill-rule="nonzero" fill="#797979" stroke="none" />
</svg>