<?xml version="1.0" encoding="utf-8"?>
<svg version="1.1" xmlns:xlink="http://www.w3.org/1999/xlink" width="12px" height="12px" viewBox="415 240.5  12 12" xmlns="http://www.w3.org/2000/svg">
  <path d="M 421 240.5  C 424.36 240.5  427 243.14  427 246.5  C 427 249.86  424.36 252.5  421 252.5  C 417.64 252.5  415 249.86  415 246.5  C 415 243.14  417.64 240.5  421 240.5  Z " fill-rule="nonzero" fill="#ffffff" stroke="none" />
  <path d="M 421 241  C 424.08 241  426.5 243.42  426.5 246.5  C 426.5 249.58  424.08 252  421 252  C 417.92 252  415.5 249.58  415.5 246.5  C 415.5 243.42  417.92 241  421 241  Z " stroke-width="1" stroke="#797979" fill="none" />
  <path d="M 421 249.5  C 419.32 249.5  418 248.18  418 246.5  C 418 244.82  419.32 243.5  421 243.5  C 422.68 243.5  424 244.82  424 246.5  C 424 248.18  422.68 249.5  421 249.5  " fill-rule="nonzero" fill="#797979" stroke="none" />
</svg>