<?xml version="1.0" encoding="utf-8"?>
<svg version="1.1" xmlns:xlink="http://www.w3.org/1999/xlink" width="12px" height="12px" viewBox="317 746.5  12 12" xmlns="http://www.w3.org/2000/svg">
  <path d="M 323 746.5  C 326.36 746.5  329 749.14  329 752.5  C 329 755.86  326.36 758.5  323 758.5  C 319.64 758.5  317 755.86  317 752.5  C 317 749.14  319.64 746.5  323 746.5  Z " fill-rule="nonzero" fill="#ffffff" stroke="none" />
  <path d="M 323 747  C 326.08 747  328.5 749.42  328.5 752.5  C 328.5 755.58  326.08 758  323 758  C 319.92 758  317.5 755.58  317.5 752.5  C 317.5 749.42  319.92 747  323 747  Z " stroke-width="1" stroke="#797979" fill="none" />
  <path d="M 323 755.5  C 321.32 755.5  320 754.18  320 752.5  C 320 750.82  321.32 749.5  323 749.5  C 324.68 749.5  326 750.82  326 752.5  C 326 754.18  324.68 755.5  323 755.5  " fill-rule="nonzero" fill="#797979" stroke="none" />
</svg>