<?xml version="1.0" encoding="utf-8"?>
<svg version="1.1" xmlns:xlink="http://www.w3.org/1999/xlink" width="12px" height="12px" viewBox="317 778.5  12 12" xmlns="http://www.w3.org/2000/svg">
  <path d="M 323 778.5  C 326.36 778.5  329 781.14  329 784.5  C 329 787.86  326.36 790.5  323 790.5  C 319.64 790.5  317 787.86  317 784.5  C 317 781.14  319.64 778.5  323 778.5  Z " fill-rule="nonzero" fill="#ffffff" stroke="none" />
  <path d="M 323 779  C 326.08 779  328.5 781.42  328.5 784.5  C 328.5 787.58  326.08 790  323 790  C 319.92 790  317.5 787.58  317.5 784.5  C 317.5 781.42  319.92 779  323 779  Z " stroke-width="1" stroke="#797979" fill="none" />
  <path d="M 323 787.5  C 321.32 787.5  320 786.18  320 784.5  C 320 782.82  321.32 781.5  323 781.5  C 324.68 781.5  326 782.82  326 784.5  C 326 786.18  324.68 787.5  323 787.5  " fill-rule="nonzero" fill="#797979" stroke="none" />
</svg>