<?xml version="1.0" encoding="utf-8"?>
<svg version="1.1" xmlns:xlink="http://www.w3.org/1999/xlink" width="10px" height="10px" xmlns="http://www.w3.org/2000/svg">
  <g transform="matrix(1 0 0 1 -1067 -367 )">
    <path d="M 1072 368  C 1074.24 368  1076 369.76  1076 372  C 1076 374.24  1074.24 376  1072 376  C 1069.76 376  1068 374.24  1068 372  C 1068 369.76  1069.76 368  1072 368  Z " fill-rule="nonzero" fill="#ffffff" stroke="none" />
    <path d="M 1072 368  C 1074.24 368  1076 369.76  1076 372  C 1076 374.24  1074.24 376  1072 376  C 1069.76 376  1068 374.24  1068 372  C 1068 369.76  1069.76 368  1072 368  Z " stroke-width="2" stroke="#87d068" fill="none" />
  </g>
</svg>